<svg width="63" height="61" viewBox="0 0 63 61" fill="none" xmlns="http://www.w3.org/2000/svg">
<path fill-rule="evenodd" clip-rule="evenodd" d="M29.2541 3.32977C34.5353 -1.87744 43.4343 0.478421 45.4872 7.54873L48.7687 7.15224C56.3914 6.2312 62.047 14.0611 58.7769 21.0081L58.0185 22.6193C64.5693 26.5527 64.2689 36.1531 57.4765 39.6666L54.4778 41.2177L54.9815 43.1048C56.9241 50.3817 50.2471 57.026 42.9798 55.0476L42.7793 54.993L42.778 54.9958C39.7098 61.5137 30.882 62.5803 26.3498 56.9807L25.6573 56.1252L21.8658 58.0864C15.0662 61.6035 7.04761 56.2862 7.64137 48.654L7.88718 45.4942L7.50022 45.3889C0.232979 43.4105 -2.1547 34.2985 3.20846 29.0105L3.48776 28.7351L2.71611 27.7817C-2.11452 21.8136 1.51344 12.862 9.13614 11.9409L10.5104 11.7749L10.592 10.7257C11.1542 3.49927 19.115 -0.618487 25.3377 3.09843L27.9227 4.64251L29.2541 3.32977ZM47.8993 16.5749L54.5677 20.558L55.1578 19.3045C57.0887 15.2027 53.7493 10.5795 49.2485 11.1234L46.5316 11.4516L47.8993 16.5749ZM50.991 28.1564L52.8559 24.1947L49.3791 22.118L50.991 28.1564ZM56.3004 26.2691L52.5909 34.1495L53.4214 37.2607L55.6388 36.1137C59.5274 34.1023 59.8124 28.7121 56.3004 26.2691ZM44.5438 41.8527L48.3491 33.7687L44.4536 19.1759L34.0473 12.9601L23.9463 14.1806L13.5369 24.4442L12.8024 33.8853L21.9396 45.1742L32.5421 48.0606L44.5438 41.8527ZM42.9738 13.6328L40.5352 12.1762L42.5209 11.9362L42.9738 13.6328ZM31.4706 6.76171L34.9248 8.82497L41.4258 8.03947C39.8934 4.36168 35.0183 3.26371 32.0625 6.17808L31.4706 6.76171ZM24.98 7.54402L22.1105 10.3733L14.5606 11.2855L14.58 11.0359C14.9119 6.76913 19.6123 4.33782 23.2865 6.53246L24.98 7.54402ZM14.2441 15.3528L17.4535 14.9651L14.0102 18.3601L14.2441 15.3528ZM9.61596 15.9121L10.194 15.8422L9.66478 22.6446L6.34978 25.9132L5.82528 25.2652C2.97306 21.7413 5.11516 16.4559 9.61596 15.9121ZM8.20385 41.4237C4.18619 40.0674 2.93731 34.8958 6.01643 31.8592L8.69087 35.1635L8.20385 41.4237ZM8.87844 29.0373L9.14211 29.3631L9.19146 28.7287L8.87844 29.0373ZM12.1319 42.5042L12.3511 39.6857L15.3392 43.3774L12.1319 42.5042ZM11.8161 46.5638L19.6429 48.6945L23.0879 52.9508L20.0281 54.5335C16.0133 56.6102 11.2787 53.4706 11.6293 48.9642L11.8161 46.5638ZM29.4589 54.4642L29.2847 54.2489L32.9954 52.3295L38.8194 53.915C36.765 57.1994 31.9834 57.5832 29.4589 54.4642ZM38.2464 49.6134L40.5902 50.2515L41.7416 47.8055L38.2464 49.6134ZM47.5855 44.7827L44.5179 51.2995C48.6137 52.0575 52.2203 48.2698 51.1169 44.1365L50.84 43.0993L47.5855 44.7827ZM26.2434 50.4914L26.7153 51.0745L27.2912 50.7767L26.2434 50.4914ZM38.1023 33.3294C40.6253 31.7652 40.6253 28.0944 38.1023 26.5302L29.1078 20.9536C26.4431 19.3015 23 21.2179 23 24.3532V35.5064C23 38.6417 26.4431 40.5581 29.1078 38.906L38.1023 33.3294ZM35.9945 29.9298L27 35.5064L27 24.3532L35.9945 29.9298Z" fill="#FE7600"/>
</svg>
